<svg version="1.1" xmlns="http://www.w3.org/2000/svg" xmlns:xlink="http://www.w3.org/1999/xlink" x="0px" y="0px"
	 viewBox="277 -80.9 614.1 101.2" style="enable-background:new 277 -80.9 614.1 101.2;" xml:space="preserve">
<style type="text/css">
	.st0{fill:#FFFFFF;}
</style>
<g>
	<rect x="793.7" y="-65.3" class="st0" width="3.2" height="5.7"/>
	<path class="st0" d="M553-44.2c-3.4-3.4-8.6-5.1-15.4-4.8c-6.8-0.3-12.1,1.4-15.4,4.8c-3.3,3.3-4.9,8.2-4.8,14.8l0,0v21h3.2v-20.5
		c-0.1-5.9,1.1-10.2,3.9-13c2.8-2.8,7.2-4,13.3-3.9c5.9-0.1,10.4,1.1,13.1,3.9c2.8,2.8,4,7.2,3.9,13.1v20.3h3.2v-21.1l0,0
		C557.9-36,556.3-40.9,553-44.2z"/>
	<path class="st0" d="M479.9-49c-6.8-0.1-11.9,1.5-15.4,5.1c-3.3,3.4-4.9,8.5-4.8,15c-0.1,6.6,1.4,11.6,4.7,15
		c3.3,3.4,8.1,5.1,14.4,5.1l0,0c0.4,0,0.6,0,1,0c6.8,0.3,11.9-1.5,15.4-5.1c3.3-3.4,4.9-8.5,4.8-15c0.1-6.6-1.4-11.6-4.8-15
		C491.9-47.4,486.7-49.1,479.9-49z M489.9-19.1c-1.9,2-5.3,2.9-9.9,2.8h-0.1h-0.1c-0.3,0-0.6,0-0.9,0l0,0c-4.2,0-7.2-0.9-9-2.8
		c-1.9-1.9-2.8-5.2-2.7-9.7v-0.1v-0.1c-0.1-4.5,0.8-7.8,2.7-9.7c1.8-1.9,4.9-2.8,9.1-2.8c0.3,0,0.5,0,0.8,0h0.1h0.1
		c4.5-0.1,8,0.9,9.9,2.8c1.9,1.9,2.8,5.2,2.7,9.7v0.1v0.1C492.6-24.3,491.8-21,489.9-19.1z"/>
	<path class="st0" d="M768.7-15.5c-1.6-1.6-2.3-3.8-2.1-6.7h-0.1v-23.6h17.3V-49h-17.2v-16.4h-3.2v44h0.1c0,3.3,1,5.9,3,8.1
		c3.2,3.2,8.3,4.8,16.2,4.8c0.4,0,0.8,0,1.1,0v-3.2C776.4-11.6,771.3-12.9,768.7-15.5z"/>
	<path class="st0" d="M435.2-32.6L435.2-32.6h-0.6c-8.5,0-11.1-1.5-11.9-2.4c-0.3-0.3-0.6-0.8-0.5-1.9v-0.3v-0.3
		c-0.1-1.1,0.3-1.6,0.6-2c0.8-0.8,3.3-2.4,11.7-2.3h0.1c8-0.1,10.6,1.4,11.5,2.1c0.4,0.4,0.9,1,0.9,2.4l7.5-0.1c0-3-1.1-5.7-3.2-7.6
		c-3.2-3-8.5-4.4-16.8-4.3c-8.6-0.1-14.1,1.4-17.2,4.5c-1.9,1.9-2.8,4.5-2.7,7.3c-0.1,2.8,0.8,5.3,2.5,7.2c3,3.3,8.3,4.7,17.3,4.7
		l0,0c0.1,0,0.1,0,0.3,0c8.3,0,10.9,1.4,11.6,2.1c0.1,0.3,0.6,0.6,0.5,2.1v0.3v0.3c0.1,1.1-0.3,1.6-0.6,2c-0.8,0.8-3.3,2.4-11.7,2.3
		h-0.1h-0.1c-6.3,0.1-10.1-0.5-11.5-1.9c-0.3-0.3-0.8-0.8-0.8-2.7l-7.5,0.1c0,3.3,1,5.9,3,8c2.9,2.8,7.5,4,15.4,4c0.5,0,0.9,0,1.4,0
		c8.6,0.1,14-1.3,17.2-4.5c1.9-1.9,2.8-4.5,2.7-7.3c0.1-3-0.8-5.6-2.5-7.5C448.9-31.2,443.9-32.6,435.2-32.6z"/>
	<rect x="793.7" y="-49" class="st0" width="3.2" height="40.5"/>
	<rect x="507.2" y="-65.3" class="st0" width="3.2" height="5.7"/>
	<rect x="507.2" y="-49" class="st0" width="3.2" height="40.4"/>
	<path class="st0" d="M643.1-29.6L643.1-29.6v21h3.2v-20.8c-0.1-5.7,1.3-10,3.9-12.6c2.8-2.8,7.2-4,13.3-3.9l0.1-3.2
		c-6.9-0.3-12.1,1.4-15.5,4.8C644.6-41.1,643-36,643.1-29.6z"/>
	<path class="st0" d="M571-15.5c-1.6-1.6-2.3-3.8-2.1-6.7h-0.1v-23.6h17.2V-49h-17.2v-16.4h-3.2v44h0.1c0,3.3,1,6.1,3,8.1
		c3.2,3.2,8.3,4.7,16,4.7c0.4,0,0.8,0,1.1,0v-3.2C578.5-11.6,573.6-12.9,571-15.5z"/>
	<path class="st0" d="M706.5-24.1v-11.6c0-3.5-1-6.3-3-8.5c-3.3-3.3-8.8-4.8-17.2-4.7c-3.3-0.1-6.2,0.1-8.7,0.6l0.6,3
		c2.3-0.5,5.1-0.6,8.1-0.6v-1.5v1.5c7.3-0.1,12.4,1.1,14.9,3.8c1.4,1.5,2.1,3.4,2.1,5.8l0,0v5.2c-3-3.2-8.3-4.7-15.9-4.7
		c-0.4,0-0.9,0-1.1,0c-8.3-0.1-14,1.4-17.3,4.8c-2.1,2.3-3.2,5.2-3,8.8c-0.1,3.7,0.9,6.7,3,8.8c3,3.2,8.3,4.8,16.2,4.8
		c0.4,0,0.8,0,1,0c0.4,0,0.8,0,1.1,0c7.7,0,12.9-1.5,16-4.7v4.5h3.2v-12.1c0-0.4,0-0.9,0-1.4s0-0.9,0-1.4V-24.1L706.5-24.1z
		 M703.5-20.8c-0.1,2.3-0.8,4.2-2.1,5.6c-2.4,2.5-7.1,3.8-13.9,3.8c-0.4,0-0.8,0-1.1,0c-7.3,0.1-12.4-1.1-14.9-3.8
		c-1.5-1.6-2.3-3.8-2.1-6.7v-0.3c-0.1-2.8,0.6-5.1,2.1-6.7c2.4-2.5,7.1-3.8,13.8-3.8c0.4,0,0.8,0,1.3,0c7.3-0.1,12.4,1.1,14.9,3.8
		c1.4,1.4,2,3.2,2.1,5.4V-20.8z"/>
	<path class="st0" d="M751.7-22.1c0.1,2.9-0.6,5.1-2.1,6.7c-2.5,2.7-7.6,3.9-14.9,3.8v1.5v-1.5c-7.3,0.1-12.4-1.1-14.9-3.8
		c-1.4-1.5-2.1-3.4-2.1-5.9l0,0v-15.4c0.1-2.3,0.8-4.2,2.1-5.6c2.5-2.7,7.6-3.9,15-3.8c7.3-0.1,12.4,1.1,14.9,3.8
		c1.6,1.6,2.3,3.8,2.1,6.7l3.2,0.1c0.1-3.7-0.9-6.7-3-9c-3.3-3.3-8.8-4.8-17.2-4.7c-8.3-0.1-14,1.4-17.2,4.7c-2.1,2.1-3.2,5.1-3,8.7
		V-22c-0.1,3.5,0.9,6.4,3,8.7c3,3.2,8.3,4.7,16,4.7c0.4,0,0.8,0,1.1,0s0.8,0,1.1,0c7.7,0,13-1.5,16-4.7c2.1-2.3,3.2-5.3,3-9
		L751.7-22.1z"/>
	<path class="st0" d="M632.7-43.8c-3.3-3.3-8.8-4.9-17.2-4.8c-8.3-0.1-14,1.4-17.2,4.7c-2.1,2.1-3.2,5.2-3,8.7v13.4
		c-0.1,3.7,0.9,6.7,3,9c3,3.2,8.3,4.7,15.9,4.7c0.4,0,0.9,0,1.3,0s0.8,0,1.1,0c2.9,0,5.4-0.3,7.6-0.6l-0.6-3
		c-2.3,0.5-5.1,0.6-8.1,0.6v1.5v-1.5c-7.3,0.1-12.4-1.1-14.9-3.8c-0.3-0.4-0.6-0.6-0.9-1c-0.6-1.5-0.8-2.8-0.4-3.4
		c1.5-2.1,9.6-2,16-1.9c0.4,0,0.9,0,1.3,0c7.6,0,12.9-1.5,15.9-4.7c2.1-2.3,3.2-5.2,3-9C635.9-38.5,634.9-41.6,632.7-43.8z
		 M630.5-28.2c-2.5,2.7-7.6,3.9-14.9,3.8v2.1v-2.1c-8.3-0.1-14.1-0.1-17.2,1.8v-13.5c0.1-2.3,0.8-4.2,2.1-5.6
		c2.5-2.7,7.6-3.9,15-3.8c7.3-0.1,12.4,1.1,14.9,3.8c1.6,1.6,2.3,3.8,2.1,6.7v0.1C632.7-32,632.1-29.7,630.5-28.2z"/>
	<path class="st0" d="M871.6-21.2L871.6-21.2c0.4,0,0.9,0,1.3,0c7.6,0,12.9-1.5,15.9-4.7c2.1-2.3,3.3-5.2,3-9c0.1-3.7-0.9-6.7-3-9
		c-3.3-3.3-8.8-4.9-17.2-4.7c-8.3-0.1-14,1.4-17.2,4.7c-2.1,2.1-3.2,5.2-3,8.7v13.6c-0.1,2.7,0.5,5.1,1.6,6.9l0,0l0,0
		c0.4,0.6,0.9,1.3,1.4,1.8c3,3.2,8.3,4.7,15.9,4.7c0.4,0,0.8,0,1.3,0l0,0c0.4,0,0.8,0,1.1,0c2.9,0,5.4-0.3,7.6-0.6l-0.6-3.2
		c-2.3,0.5-5.1,0.6-8.1,0.6l0,0c0,0,0,0-0.1,0c-7.3,0.1-12.4-1.1-14.9-3.8c-0.3-0.3-0.5-0.6-0.8-0.9l0,0c-0.8-1.6-0.9-2.8-0.4-3.5
		C857.1-21.5,865.2-21.4,871.6-21.2z M854.6-22.6v-13.5c0.1-2.3,0.8-4.2,2.1-5.6c2.5-2.7,7.6-3.9,15-3.8c7.3-0.1,12.4,1.1,14.9,3.8
		c1.6,1.6,2.3,3.8,2.1,6.7v0.1c0.1,2.9-0.6,5.1-2.1,6.7c-2.5,2.7-7.6,3.9-14.9,3.8l0,0l0,0C863.4-24.5,857.6-24.5,854.6-22.6z"/>
	<path class="st0" d="M845.1-48.8c-0.8-0.4-1.6-0.1-2.1,0.6l-17.4,34.5l-17.4-34.5c-0.4-0.8-1.3-1.1-2.1-0.6
		c-0.8,0.4-1.1,1.3-0.6,2.1l18.8,37.3l0,0c0,0.1,0.1,0.3,0.3,0.4c0,0,0,0,0.1,0.1c0.1,0.1,0.1,0.1,0.3,0.1c0,0,0,0,0.1,0l0,0
		c0,0,0.1,0,0.1,0.1h0.1c0.1,0,0.3,0,0.4,0l0,0l0,0c0.1,0,0.3,0,0.4,0h0.1c0.1,0,0.1,0,0.3-0.1l0,0c0,0,0,0,0.1,0s0.1-0.1,0.3-0.1
		c0,0,0,0,0.1-0.1c0.1-0.1,0.1-0.3,0.3-0.4l0,0l18.8-37.3C846.1-47.4,845.8-48.4,845.1-48.8z"/>
	<g>
		<polygon class="st0" points="340.7,-77.2 337.9,-77.2 319.8,-77.2 309.6,-77.2 276.3,-77.2 276.3,-46.1 309.6,-46.1 309.6,-12.9
			342.8,-12.9 342.8,20.3 373.9,20.3 373.9,-12.9 373.9,-18.8 373.9,-46.1 373.9,-51 373.9,-77.2 		"/>
		<polygon class="st0" points="276.3,-10.7 276.3,-5.8 276.3,20.3 309.6,20.3 309.6,-12.9 276.3,-12.9 		"/>
	</g>
</g>
</svg>
